<svg viewBox="0 0 64 64" xmlns="http://www.w3.org/2000/svg"><g id="insert_money" data-name="insert money"><path d="m32 39c4.41 0 8-3.14 8-7s-3.59-7-8-7-8 3.14-8 7 3.59 7 8 7zm0-12c3.31 0 6 2.24 6 5s-2.69 5-6 5-6-2.24-6-5 2.69-5 6-5z"/><path d="m55 7h-46a5 5 0 0 0 -5 5v11a5 5 0 0 0 5 5h7v27a5 5 0 0 0 5 5h22a5 5 0 0 0 5-5v-27h7a5 5 0 0 0 5-5v-11a5 5 0 0 0 -5-5zm-39 12h-2v-3h2zm30 36a3 3 0 0 1 -3 3h-22a3 3 0 0 1 -3-3v-39h2v35a1 1 0 0 0 1 1 3 3 0 0 1 3 3 1 1 0 0 0 1 1h14a1 1 0 0 0 1-1 3 3 0 0 1 3-3 1 1 0 0 0 1-1v-35h2zm-4-39v34.1a5 5 0 0 0 -3.9 3.9h-12.2a5 5 0 0 0 -3.9-3.9v-34.1zm8 0v3h-2v-3zm8 7a3 3 0 0 1 -3 3h-7v-5h3a1 1 0 0 0 1-1v-5a1 1 0 0 0 -1-1h-38a1 1 0 0 0 -1 1v5a1 1 0 0 0 1 1h3v5h-7a3 3 0 0 1 -3-3v-11a3 3 0 0 1 3-3h46a3 3 0 0 1 3 3z"/></g></svg>